<svg id="Layer_1" enable-background="new 0 0 512.002 512.002" height="512" viewBox="0 0 512.002 512.002" width="512" xmlns="http://www.w3.org/2000/svg"><g><g clip-rule="evenodd" fill-rule="evenodd"><path d="m94.363 256.001c0-51.682 10.472-99.641 28.362-139.232 29.142-64.486 77.964-106.769 133.276-106.769-135.862 0-246.001 110.139-246.001 246.001s110.138 246.001 246.001 246.001c-55.312 0-104.134-42.282-133.275-106.768-17.89-39.591-28.363-87.551-28.363-139.233z" fill="#99ebfa"/><g fill="#cff5fd"><path d="m122.726 116.769c39.429 25.413 85.64 39.229 133.275 39.229v-145.998c-55.312 0-104.134 42.283-133.275 106.769z"/><path d="m256.001 155.998c-47.635 0-93.846-13.816-133.275-39.229-17.891 39.591-28.362 87.55-28.362 139.232h161.638v-100.003z"/><path d="m256.001 256.001h-161.638c0 51.682 10.472 99.642 28.363 139.233 39.429-25.413 85.64-39.229 133.275-39.229z"/><path d="m256.001 356.005c-47.635 0-93.846 13.816-133.275 39.229 29.141 64.486 77.963 106.768 133.275 106.768z"/></g><path d="m417.639 256.001c0-51.682-10.472-99.641-28.362-139.232-29.141-64.486-77.964-106.769-133.276-106.769 135.863 0 246.001 110.138 246.001 246.001s-110.138 246.001-246.001 246.001c55.312 0 104.134-42.282 133.275-106.768 17.891-39.591 28.363-87.551 28.363-139.233z" fill="#99ebfa"/><path d="m389.277 116.769c-39.429 25.413-85.64 39.229-133.275 39.229v-145.998c55.311 0 104.134 42.283 133.275 106.769z" fill="#cff5fd"/><path d="m256.001 155.998c47.635 0 93.846-13.816 133.275-39.229 17.891 39.591 28.362 87.55 28.362 139.232h-161.637z" fill="#cff5fd"/><path d="m256.001 256.001h161.638c0 51.682-10.472 99.642-28.363 139.233-39.429-25.413-85.64-39.229-133.275-39.229z" fill="#cff5fd"/><path d="m256.001 356.005c47.635 0 93.846 13.816 133.275 39.229-29.141 64.486-77.963 106.768-133.275 106.768z" fill="#cff5fd"/><g><path d="m88.571 405.458c0-15.714-12.857-28.571-28.571-28.571-15.715 0-28.572 12.857-28.572 28.571v14.286c0 7.304 2.778 13.99 7.328 19.055 5.24 5.833 12.832 9.516 21.243 9.516s16.002-3.683 21.243-9.516c4.551-5.065 7.328-11.752 7.328-19.055v-14.286z" fill="#bb6b57"/><path d="m81.243 438.8c-5.241 5.833-12.832 9.516-21.243 9.516s-16.003-3.683-21.242-9.517c-16.955 8.023-28.758 25.315-28.758 45.23v17.973h100v-17.973c.001-19.915-11.802-37.207-28.757-45.229z" fill="#ffc144"/></g><g><path d="m165.714 119.456c0-15.714-12.857-28.571-28.571-28.571s-28.572 12.857-28.572 28.571v14.286c0 7.304 2.778 13.99 7.328 19.055 5.24 5.833 12.832 9.516 21.243 9.516s16.002-3.683 21.243-9.516c4.551-5.065 7.328-11.752 7.328-19.055v-14.286z" fill="#ffdcd5"/><path d="m158.386 152.798c-5.241 5.833-12.832 9.516-21.243 9.516s-16.003-3.683-21.242-9.517c-16.955 8.023-28.758 25.315-28.758 45.23v17.973h100v-17.973c0-19.915-11.803-37.207-28.757-45.229z" fill="#ff9346"/></g><g><path d="m374.574 254.558c0-15.714-12.857-28.571-28.571-28.571s-28.572 12.857-28.572 28.571v14.286c0 7.304 2.778 13.99 7.328 19.055 5.24 5.833 12.832 9.516 21.243 9.516s16.002-3.683 21.243-9.516c4.551-5.065 7.328-11.752 7.328-19.055v-14.286z" fill="#cc9081"/><path d="m367.245 287.9c-5.241 5.833-12.832 9.516-21.243 9.516s-16.003-3.683-21.242-9.517c-16.955 8.023-28.758 25.315-28.758 45.23v17.973h100v-17.973c.001-19.915-11.802-37.207-28.757-45.229z" fill="#fff"/></g><g><path d="m480.573 38.572c0-15.714-12.857-28.571-28.571-28.571s-28.572 12.856-28.572 28.571v14.286c0 7.304 2.778 13.99 7.328 19.055 5.24 5.833 12.832 9.516 21.243 9.516s16.002-3.683 21.243-9.516c4.551-5.065 7.328-11.752 7.328-19.055v-14.286z" fill="#e5ae8c"/><path d="m473.245 71.913c-5.241 5.833-12.832 9.516-21.243 9.516s-16.003-3.683-21.242-9.517c-16.955 8.023-28.758 25.315-28.758 45.23v17.973h100v-17.973c0-19.915-11.803-37.206-28.757-45.229z" fill="#cbe558"/></g></g><g><path d="m512.002 135.115v-17.972c0-19.496-9.304-37.34-24.802-48.54 2.161-4.812 3.374-10.138 3.374-15.745v-14.286c-.001-21.269-17.304-38.572-38.573-38.572s-38.571 17.303-38.571 38.572v14.286c0 .443.019.882.034 1.321-44.864-35.068-100-54.179-157.463-54.179-68.38 0-132.668 26.628-181.02 74.981-48.352 48.352-74.981 112.64-74.981 181.02 0 43.226 10.924 85.7 31.647 123.341-6.338 6.876-10.218 16.05-10.218 26.116v14.286c0 5.607 1.212 10.933 3.373 15.745-15.5 11.199-24.802 29.038-24.802 48.541v17.972c0 5.523 4.477 10 10 10h100c5.523 0 10-4.477 10-10v-17.972c0-4.033-.406-7.993-1.174-11.841 40.696 25.9 88.009 39.813 137.175 39.813 68.38 0 132.667-26.628 181.02-74.981 48.353-48.352 74.981-112.639 74.981-181.02 0-38.448-8.687-76.471-25.226-110.886h15.226c5.523 0 10-4.477 10-10zm-78.572-96.543c0-10.241 8.331-18.572 18.571-18.572s18.572 8.331 18.572 18.572v14.286c0 10.24-8.332 18.571-18.572 18.571s-18.571-8.331-18.571-18.571zm58.345 227.429c-2.394 57.129-25.178 109.076-61.267 148.719-9.07-8.46-18.679-16.206-28.792-23.209 15.72-37.452 24.632-80.471 25.784-125.51zm-410.289-168.711c5.676 5.286 11.614 10.33 17.748 15.083-.428 2.298-.663 4.663-.663 7.083v14.286c0 5.607 1.212 10.933 3.373 15.744-15.499 11.198-24.802 29.038-24.802 48.541v17.973c0 4.979 3.643 9.096 8.406 9.861-.526 6.685-.879 13.414-1.055 20.14h-64.266c2.394-57.124 25.175-109.068 61.259-148.711zm71.147-13.147c25.585-37.063 58.723-59.461 93.369-63.098v124.734c-24.047-1.009-47.623-5.656-70.287-13.865v-12.457c-.001-15.761-9.507-29.336-23.082-35.314zm-15.49 16.742c10.24 0 18.571 8.331 18.571 18.571v14.286c0 10.24-8.331 18.571-18.571 18.571s-18.572-8.331-18.572-18.571v-14.286c0-10.24 8.332-18.571 18.572-18.571zm-22.511 64.149c6.34 4.574 14.114 7.28 22.511 7.28 8.402 0 16.18-2.709 22.522-7.287 10.898 7.427 17.478 19.636 17.478 33.001v7.972h-80v-7.972c0-13.15 6.718-25.575 17.489-32.994zm-9.023 60.966h81.534c5.523 0 10-4.477 10-10v-17.972c0-17.233-7.269-33.176-19.66-44.382 22.206 7.171 45.158 11.24 68.518 12.144v80.212h-141.497c.184-6.685.556-13.368 1.105-20.002zm160.392-204.976c35.984 3.67 69.74 27.083 95.943 66.882 5.209 7.912 9.996 16.3 14.361 25.086-33.378 19.71-71.547 31.105-110.304 32.785zm-135.555 60.455c-8.791 1.546-16.563 6.075-22.233 12.506-4.338-3.485-8.56-7.127-12.637-10.904 20.61-19.134 44.631-34.636 71.041-45.485-13.319 12.047-25.43 26.727-36.171 43.883zm-45.934 184.522c.162 6.15.456 12.332.912 18.481.39 5.256 4.775 9.261 9.962 9.261.249 0 .499-.009.75-.028 5.508-.408 9.642-5.205 9.233-10.712-.419-5.658-.693-11.344-.851-17.002h141.483v80.213c-42.079 1.627-82.646 13.499-118.538 34.374-1.605-3.975-3.145-8.034-4.608-12.184-1.837-5.208-7.549-7.941-12.756-6.106-5.208 1.837-7.942 7.548-6.106 12.756 1.982 5.62 4.095 11.094 6.324 16.423-4.108 2.848-8.133 5.835-12.086 8.933-2.482-18.89-18.674-33.524-38.23-33.524-3.977 0-7.815.606-11.428 1.729-17.13-31.507-26.832-66.645-28.353-102.614zm300.061 114.63c-9.808-5.689-20.012-10.753-30.604-15.14-3.76-1.557-7.547-3.017-11.356-4.39h49.063c-2.159 6.668-4.529 13.183-7.103 19.53zm-138.572 110.352c-43.668-4.5-83.812-38.288-110.333-92.032 33.316-19.78 71.103-31.08 110.333-32.726zm20-.005v-124.752c39.421 1.633 77.115 12.896 110.359 32.675-4.38 8.826-9.185 17.25-14.416 25.196-26.203 39.798-59.959 63.211-95.943 66.881zm120.001-149.876h-80v-7.972c0-13.149 6.718-25.574 17.489-32.994 6.34 4.574 14.114 7.28 22.511 7.28 8.403 0 16.18-2.709 22.522-7.288 10.897 7.427 17.478 19.636 17.478 33.001zm-21.428-72.258c0 10.24-8.331 18.571-18.571 18.571s-18.572-8.331-18.572-18.571v-14.286c0-10.24 8.332-18.571 18.572-18.571s18.571 8.331 18.571 18.571zm-53.77 15.745c-15.499 11.198-24.802 29.038-24.802 48.541v14.635c-6.625-.777-13.295-1.291-20.001-1.549v-80.214h41.429v2.843c.001 5.606 1.213 10.932 3.374 15.744zm-269.375 135.155v-14.286c0-10.24 8.332-18.572 18.572-18.572s18.571 8.332 18.571 18.572v14.286c0 10.241-8.331 18.572-18.571 18.572s-18.572-8.331-18.572-18.572zm56.484 7.056c6.687-6.036 13.67-11.653 20.915-16.838 13.198 26.128 29.508 47.955 47.951 64.59-25.408-10.376-49.002-25.219-69.724-44.125.343-1.187.63-2.396.858-3.627zm280.736 8.295c5.249-7.972 10.097-16.384 14.547-25.165 8.078 5.796 15.832 12.135 23.222 18.997-20.561 19.088-44.516 34.56-70.852 45.404 11.934-10.861 23.042-23.985 33.083-39.236zm24.318-120.865c-3.917-11.837-11.475-22.203-21.767-29.64 2.161-4.812 3.374-10.138 3.374-15.745v-2.843h22.921c-.442 16.446-1.962 32.588-4.528 48.228zm-19.362-68.229c-3.904-17.162-19.276-30.014-37.603-30.014s-33.699 12.852-37.603 30.014h-42.398v-80.206c41.582-1.661 82.568-13.643 118.554-34.466 13.912 34.282 21.834 73.515 22.939 114.672zm10.498-144.645c-.31.224-.616.453-.927.676-4.445-8.766-9.286-17.165-14.527-25.125-10.069-15.293-21.211-28.449-33.182-39.328 22.699 9.302 43.957 22.164 62.99 38.296-6.825 7.163-11.755 15.901-14.354 25.481zm-294.103 390.646h-80v-7.972c0-13.149 6.719-25.574 17.489-32.994 6.34 4.574 14.114 7.28 22.511 7.28 8.403 0 16.18-2.709 22.522-7.288 10.898 7.427 17.478 19.636 17.478 33.002zm391.783-246.001h-64.284c-.907-35.46-6.629-69.662-16.694-100.886h53.556c16.534 31.013 25.925 65.613 27.422 100.886zm.219-120.886h-80v-7.972c0-13.149 6.719-25.574 17.489-32.994 6.34 4.574 14.113 7.28 22.511 7.28 8.403 0 16.18-2.709 22.522-7.288 10.898 7.427 17.478 19.636 17.478 33.002z"/><path d="m101.5 338.33c5.523 0 10-4.477 10-10s-4.477-10-10-10h-.007c-5.523 0-9.996 4.477-9.996 10s4.481 10 10.003 10z"/></g></g></svg>